# xmcd
#
# Track frame offsets:
#	157
#	14998
#	34371
#	45886
#	64853
#	82606
#	99845
#	118810
#	135890
#	156380
#	190532
#
# Disc length: 2961 seconds
#
# Revision: 0
# Processed by: cddbd v1.5.2PL0 Copyright (c) Steve Scherf et al.
# Submitted via: EZCDAudioConverter 2.0.5.1
#
DISCID=820b8f0b
DTITLE=Jeff Jones - The rooster grows - The bank session
DYEAR=2013
DGENRE=Counrty
TTITLE0=Barbed wire sandals
TTITLE1=Soul healing love
TTITLE2=So much for rock and roll
TTITLE3=Willie Nelson style
TTITLE4=What she is
TTITLE5=Pass it around
TTITLE6=Midnight girl
TTITLE7=All about Mary
TTITLE8=Texas
TTITLE9=Rooster crows blues
TTITLE10=Sympathy for the devil
EXTD=
EXTT0=
EXTT1=
EXTT2=
EXTT3=
EXTT4=
EXTT5=
EXTT6=
EXTT7=
EXTT8=
EXTT9=
EXTT10=
PLAYORDER=
